<?xml version="1.0" standalone="no"?>
<!DOCTYPE svg PUBLIC "-//W3C//DTD SVG 20010904//EN"
 "http://www.w3.org/TR/2001/REC-SVG-20010904/DTD/svg10.dtd">
<svg version="1.0" xmlns="http://www.w3.org/2000/svg"
 width="45.000000pt" height="40.000000pt" viewBox="0 0 45.000000 40.000000"
 preserveAspectRatio="xMidYMid meet">

<g transform="translate(0.000000,40.000000) scale(0.100000,-0.100000)"
fill="#000000" stroke="none">
<path d="M60 367 c0 -15 31 -47 46 -47 5 0 34 -25 64 -55 48 -48 59 -55 94
-55 l40 0 -54 55 -54 55 97 0 c87 0 96 2 90 18 -13 37 -33 42 -180 42 -113 0
-143 -3 -143 -13z"/>
<path d="M180 135 c-30 -31 -65 -58 -78 -62 -20 -5 -42 -30 -42 -47 0 -3 67
-6 149 -6 144 0 150 1 166 23 l15 22 -90 3 c-49 1 -90 6 -90 10 0 4 20 28 45
52 25 24 45 48 45 52 0 4 -15 8 -33 8 -26 0 -43 -11 -87 -55z"/>
</g>
</svg>
